# xmcd CD database file
#
# Track frame offsets:
#	150
#	15890
#	32442
#	45900
#	63882
#	82747
#	98337
#	120335
#	136197
#	148482
#
# Disc length: 2282 seconds
#
# Revision: 4
# Processed by: cddbd v1.5.2PL0 Copyright (c) Steve Scherf et al.
# Submitted via: CDex 1.79
#
DISCID=6508e80a
DTITLE=Rosanne Cash - Right or Wrong
DYEAR=1979
DGENRE=Country
TTITLE0=Right or Wrong
TTITLE1=Take Me, Take Me
TTITLE2=Man Smart, Woman Smarter
TTITLE3=This Has Happened Before
TTITLE4=Baby, Better Start Turnin' em Down
TTITLE5=No Memories Hangin' Round
TTITLE6=Couldn't Do Nothin' Right
TTITLE7=Seeing's Believing
TTITLE8=Big River
TTITLE9=Anybody's Darlin' (Anything But Mine)
EXTD=1975","Columbia","Rodney Crowell YEAR: 1979
EXTT0=
EXTT1=
EXTT2=
EXTT3=
EXTT4=
EXTT5=
EXTT6=
EXTT7=
EXTT8=
EXTT9=
PLAYORDER=
